# Reign of Fire — weapon_ballista
o weapon_ballista
v -0.060000 -0.080000 -0.300000
v 0.060000 -0.080000 -0.300000
v 0.060000 0.080000 -0.300000
v -0.060000 0.080000 -0.300000
v -0.060000 -0.080000 0.600000
v -0.060000 0.080000 0.600000
v 0.060000 0.080000 0.600000
v 0.060000 -0.080000 0.600000
v -0.060000 -0.080000 -0.300000
v -0.060000 -0.080000 0.600000
v 0.060000 -0.080000 0.600000
v 0.060000 -0.080000 -0.300000
v 0.060000 0.080000 -0.300000
v 0.060000 0.080000 0.600000
v -0.060000 0.080000 0.600000
v -0.060000 0.080000 -0.300000
v -0.060000 -0.080000 -0.300000
v -0.060000 0.080000 -0.300000
v -0.060000 0.080000 0.600000
v -0.060000 -0.080000 0.600000
v 0.060000 -0.080000 -0.300000
v 0.060000 -0.080000 0.600000
v 0.060000 0.080000 0.600000
v 0.060000 0.080000 -0.300000
v -0.040000 -0.080000 0.480000
v 0.040000 -0.080000 0.480000
v 0.040000 0.040000 0.480000
v -0.040000 0.040000 0.480000
v -0.040000 -0.080000 0.760000
v -0.040000 0.040000 0.760000
v 0.040000 0.040000 0.760000
v 0.040000 -0.080000 0.760000
v -0.040000 -0.080000 0.480000
v -0.040000 -0.080000 0.760000
v 0.040000 -0.080000 0.760000
v 0.040000 -0.080000 0.480000
v 0.040000 0.040000 0.480000
v 0.040000 0.040000 0.760000
v -0.040000 0.040000 0.760000
v -0.040000 0.040000 0.480000
v -0.040000 -0.080000 0.480000
v -0.040000 0.040000 0.480000
v -0.040000 0.040000 0.760000
v -0.040000 -0.080000 0.760000
v 0.040000 -0.080000 0.480000
v 0.040000 -0.080000 0.760000
v 0.040000 0.040000 0.760000
v 0.040000 0.040000 0.480000
v -0.035000 -0.040000 -0.620000
v 0.035000 -0.040000 -0.620000
v 0.035000 0.140000 -0.620000
v -0.035000 0.140000 -0.620000
v -0.035000 -0.040000 -0.220000
v -0.035000 0.140000 -0.220000
v 0.035000 0.140000 -0.220000
v 0.035000 -0.040000 -0.220000
v -0.035000 -0.040000 -0.620000
v -0.035000 -0.040000 -0.220000
v 0.035000 -0.040000 -0.220000
v 0.035000 -0.040000 -0.620000
v 0.035000 0.140000 -0.620000
v 0.035000 0.140000 -0.220000
v -0.035000 0.140000 -0.220000
v -0.035000 0.140000 -0.620000
v -0.035000 -0.040000 -0.620000
v -0.035000 0.140000 -0.620000
v -0.035000 0.140000 -0.220000
v -0.035000 -0.040000 -0.220000
v 0.035000 -0.040000 -0.620000
v 0.035000 -0.040000 -0.220000
v 0.035000 0.140000 -0.220000
v 0.035000 0.140000 -0.620000
v -0.020000 0.100000 0.020000
v 0.020000 0.100000 0.020000
v 0.020000 0.220000 0.020000
v -0.020000 0.220000 0.020000
v -0.020000 0.100000 0.080000
v -0.020000 0.220000 0.080000
v 0.020000 0.220000 0.080000
v 0.020000 0.100000 0.080000
v -0.020000 0.100000 0.020000
v -0.020000 0.100000 0.080000
v 0.020000 0.100000 0.080000
v 0.020000 0.100000 0.020000
v 0.020000 0.220000 0.020000
v 0.020000 0.220000 0.080000
v -0.020000 0.220000 0.080000
v -0.020000 0.220000 0.020000
v -0.020000 0.100000 0.020000
v -0.020000 0.220000 0.020000
v -0.020000 0.220000 0.080000
v -0.020000 0.100000 0.080000
v 0.020000 0.100000 0.020000
v 0.020000 0.100000 0.080000
v 0.020000 0.220000 0.080000
v 0.020000 0.220000 0.020000
v -0.015000 0.090000 0.460000
v 0.015000 0.090000 0.460000
v 0.015000 0.190000 0.460000
v -0.015000 0.190000 0.460000
v -0.015000 0.090000 0.500000
v -0.015000 0.190000 0.500000
v 0.015000 0.190000 0.500000
v 0.015000 0.090000 0.500000
v -0.015000 0.090000 0.460000
v -0.015000 0.090000 0.500000
v 0.015000 0.090000 0.500000
v 0.015000 0.090000 0.460000
v 0.015000 0.190000 0.460000
v 0.015000 0.190000 0.500000
v -0.015000 0.190000 0.500000
v -0.015000 0.190000 0.460000
v -0.015000 0.090000 0.460000
v -0.015000 0.190000 0.460000
v -0.015000 0.190000 0.500000
v -0.015000 0.090000 0.500000
v 0.015000 0.090000 0.460000
v 0.015000 0.090000 0.500000
v 0.015000 0.190000 0.500000
v 0.015000 0.190000 0.460000
v -0.420000 0.020000 0.255000
v -0.420000 0.009184 0.253287
v -0.420000 -0.000572 0.248316
v -0.420000 -0.008316 0.240572
v -0.420000 -0.013287 0.230816
v -0.420000 -0.015000 0.220000
v -0.420000 -0.013287 0.209184
v -0.420000 -0.008316 0.199428
v -0.420000 -0.000572 0.191684
v -0.420000 0.009184 0.186713
v -0.420000 0.020000 0.185000
v -0.420000 0.030816 0.186713
v -0.420000 0.040572 0.191684
v -0.420000 0.048316 0.199428
v -0.420000 0.053287 0.209184
v -0.420000 0.055000 0.220000
v -0.420000 0.053287 0.230816
v -0.420000 0.048316 0.240572
v -0.420000 0.040572 0.248316
v -0.420000 0.030816 0.253287
v -0.300000 0.020000 0.253500
v -0.300000 0.009648 0.251860
v -0.300000 0.000309 0.247102
v -0.300000 -0.007102 0.239691
v -0.300000 -0.011860 0.230352
v -0.300000 -0.013500 0.220000
v -0.300000 -0.011860 0.209648
v -0.300000 -0.007102 0.200309
v -0.300000 0.000309 0.192898
v -0.300000 0.009648 0.188140
v -0.300000 0.020000 0.186500
v -0.300000 0.030352 0.188140
v -0.300000 0.039691 0.192898
v -0.300000 0.047102 0.200309
v -0.300000 0.051860 0.209648
v -0.300000 0.053500 0.220000
v -0.300000 0.051860 0.230352
v -0.300000 0.047102 0.239691
v -0.300000 0.039691 0.247102
v -0.300000 0.030352 0.251860
v -0.180000 0.020000 0.252000
v -0.180000 0.010111 0.250434
v -0.180000 0.001191 0.245889
v -0.180000 -0.005889 0.238809
v -0.180000 -0.010434 0.229889
v -0.180000 -0.012000 0.220000
v -0.180000 -0.010434 0.210111
v -0.180000 -0.005889 0.201191
v -0.180000 0.001191 0.194111
v -0.180000 0.010111 0.189566
v -0.180000 0.020000 0.188000
v -0.180000 0.029889 0.189566
v -0.180000 0.038809 0.194111
v -0.180000 0.045889 0.201191
v -0.180000 0.050434 0.210111
v -0.180000 0.052000 0.220000
v -0.180000 0.050434 0.229889
v -0.180000 0.045889 0.238809
v -0.180000 0.038809 0.245889
v -0.180000 0.029889 0.250434
v -0.060000 0.020000 0.250500
v -0.060000 0.010575 0.249007
v -0.060000 0.002073 0.244675
v -0.060000 -0.004675 0.237927
v -0.060000 -0.009007 0.229425
v -0.060000 -0.010500 0.220000
v -0.060000 -0.009007 0.210575
v -0.060000 -0.004675 0.202073
v -0.060000 0.002073 0.195325
v -0.060000 0.010575 0.190993
v -0.060000 0.020000 0.189500
v -0.060000 0.029425 0.190993
v -0.060000 0.037927 0.195325
v -0.060000 0.044675 0.202073
v -0.060000 0.049007 0.210575
v -0.060000 0.050500 0.220000
v -0.060000 0.049007 0.229425
v -0.060000 0.044675 0.237927
v -0.060000 0.037927 0.244675
v -0.060000 0.029425 0.249007
v 0.060000 0.020000 0.249000
v 0.060000 0.011039 0.247581
v 0.060000 0.002954 0.243461
v 0.060000 -0.003461 0.237046
v 0.060000 -0.007581 0.228961
v 0.060000 -0.009000 0.220000
v 0.060000 -0.007581 0.211039
v 0.060000 -0.003461 0.202954
v 0.060000 0.002954 0.196539
v 0.060000 0.011039 0.192419
v 0.060000 0.020000 0.191000
v 0.060000 0.028961 0.192419
v 0.060000 0.037046 0.196539
v 0.060000 0.043461 0.202954
v 0.060000 0.047581 0.211039
v 0.060000 0.049000 0.220000
v 0.060000 0.047581 0.228961
v 0.060000 0.043461 0.237046
v 0.060000 0.037046 0.243461
v 0.060000 0.028961 0.247581
v 0.180000 0.020000 0.247500
v 0.180000 0.011502 0.246154
v 0.180000 0.003836 0.242248
v 0.180000 -0.002248 0.236164
v 0.180000 -0.006154 0.228498
v 0.180000 -0.007500 0.220000
v 0.180000 -0.006154 0.211502
v 0.180000 -0.002248 0.203836
v 0.180000 0.003836 0.197752
v 0.180000 0.011502 0.193846
v 0.180000 0.020000 0.192500
v 0.180000 0.028498 0.193846
v 0.180000 0.036164 0.197752
v 0.180000 0.042248 0.203836
v 0.180000 0.046154 0.211502
v 0.180000 0.047500 0.220000
v 0.180000 0.046154 0.228498
v 0.180000 0.042248 0.236164
v 0.180000 0.036164 0.242248
v 0.180000 0.028498 0.246154
v 0.300000 0.020000 0.246000
v 0.300000 0.011966 0.244727
v 0.300000 0.004718 0.241034
v 0.300000 -0.001034 0.235282
v 0.300000 -0.004727 0.228034
v 0.300000 -0.006000 0.220000
v 0.300000 -0.004727 0.211966
v 0.300000 -0.001034 0.204718
v 0.300000 0.004718 0.198966
v 0.300000 0.011966 0.195273
v 0.300000 0.020000 0.194000
v 0.300000 0.028034 0.195273
v 0.300000 0.035282 0.198966
v 0.300000 0.041034 0.204718
v 0.300000 0.044727 0.211966
v 0.300000 0.046000 0.220000
v 0.300000 0.044727 0.228034
v 0.300000 0.041034 0.235282
v 0.300000 0.035282 0.241034
v 0.300000 0.028034 0.244727
v 0.420000 0.020000 0.244500
v 0.420000 0.012429 0.243301
v 0.420000 0.005599 0.239821
v 0.420000 0.000179 0.234401
v 0.420000 -0.003301 0.227571
v 0.420000 -0.004500 0.220000
v 0.420000 -0.003301 0.212429
v 0.420000 0.000179 0.205599
v 0.420000 0.005599 0.200179
v 0.420000 0.012429 0.196699
v 0.420000 0.020000 0.195500
v 0.420000 0.027571 0.196699
v 0.420000 0.034401 0.200179
v 0.420000 0.039821 0.205599
v 0.420000 0.043301 0.212429
v 0.420000 0.044500 0.220000
v 0.420000 0.043301 0.227571
v 0.420000 0.039821 0.234401
v 0.420000 0.034401 0.239821
v 0.420000 0.027571 0.243301
v -0.028000 0.000000 -0.100000
v -0.025227 -0.012149 -0.100000
v -0.017458 -0.021891 -0.100000
v -0.006231 -0.027298 -0.100000
v 0.006231 -0.027298 -0.100000
v 0.017458 -0.021891 -0.100000
v 0.025227 -0.012149 -0.100000
v 0.028000 -0.000000 -0.100000
v 0.025227 0.012149 -0.100000
v 0.017458 0.021891 -0.100000
v 0.006231 0.027298 -0.100000
v -0.006231 0.027298 -0.100000
v -0.017458 0.021891 -0.100000
v -0.025227 0.012149 -0.100000
v -0.028000 0.000000 -0.007143
v -0.025227 -0.012149 -0.007143
v -0.017458 -0.021891 -0.007143
v -0.006231 -0.027298 -0.007143
v 0.006231 -0.027298 -0.007143
v 0.017458 -0.021891 -0.007143
v 0.025227 -0.012149 -0.007143
v 0.028000 -0.000000 -0.007143
v 0.025227 0.012149 -0.007143
v 0.017458 0.021891 -0.007143
v 0.006231 0.027298 -0.007143
v -0.006231 0.027298 -0.007143
v -0.017458 0.021891 -0.007143
v -0.025227 0.012149 -0.007143
v -0.028000 0.000000 0.085714
v -0.025227 -0.012149 0.085714
v -0.017458 -0.021891 0.085714
v -0.006231 -0.027298 0.085714
v 0.006231 -0.027298 0.085714
v 0.017458 -0.021891 0.085714
v 0.025227 -0.012149 0.085714
v 0.028000 -0.000000 0.085714
v 0.025227 0.012149 0.085714
v 0.017458 0.021891 0.085714
v 0.006231 0.027298 0.085714
v -0.006231 0.027298 0.085714
v -0.017458 0.021891 0.085714
v -0.025227 0.012149 0.085714
v -0.028000 0.000000 0.178571
v -0.025227 -0.012149 0.178571
v -0.017458 -0.021891 0.178571
v -0.006231 -0.027298 0.178571
v 0.006231 -0.027298 0.178571
v 0.017458 -0.021891 0.178571
v 0.025227 -0.012149 0.178571
v 0.028000 -0.000000 0.178571
v 0.025227 0.012149 0.178571
v 0.017458 0.021891 0.178571
v 0.006231 0.027298 0.178571
v -0.006231 0.027298 0.178571
v -0.017458 0.021891 0.178571
v -0.025227 0.012149 0.178571
v -0.028000 0.000000 0.271429
v -0.025227 -0.012149 0.271429
v -0.017458 -0.021891 0.271429
v -0.006231 -0.027298 0.271429
v 0.006231 -0.027298 0.271429
v 0.017458 -0.021891 0.271429
v 0.025227 -0.012149 0.271429
v 0.028000 -0.000000 0.271429
v 0.025227 0.012149 0.271429
v 0.017458 0.021891 0.271429
v 0.006231 0.027298 0.271429
v -0.006231 0.027298 0.271429
v -0.017458 0.021891 0.271429
v -0.025227 0.012149 0.271429
v -0.028000 0.000000 0.364286
v -0.025227 -0.012149 0.364286
v -0.017458 -0.021891 0.364286
v -0.006231 -0.027298 0.364286
v 0.006231 -0.027298 0.364286
v 0.017458 -0.021891 0.364286
v 0.025227 -0.012149 0.364286
v 0.028000 -0.000000 0.364286
v 0.025227 0.012149 0.364286
v 0.017458 0.021891 0.364286
v 0.006231 0.027298 0.364286
v -0.006231 0.027298 0.364286
v -0.017458 0.021891 0.364286
v -0.025227 0.012149 0.364286
v -0.028000 0.000000 0.457143
v -0.025227 -0.012149 0.457143
v -0.017458 -0.021891 0.457143
v -0.006231 -0.027298 0.457143
v 0.006231 -0.027298 0.457143
v 0.017458 -0.021891 0.457143
v 0.025227 -0.012149 0.457143
v 0.028000 -0.000000 0.457143
v 0.025227 0.012149 0.457143
v 0.017458 0.021891 0.457143
v 0.006231 0.027298 0.457143
v -0.006231 0.027298 0.457143
v -0.017458 0.021891 0.457143
v -0.025227 0.012149 0.457143
v -0.028000 0.000000 0.550000
v -0.025227 -0.012149 0.550000
v -0.017458 -0.021891 0.550000
v -0.006231 -0.027298 0.550000
v 0.006231 -0.027298 0.550000
v 0.017458 -0.021891 0.550000
v 0.025227 -0.012149 0.550000
v 0.028000 -0.000000 0.550000
v 0.025227 0.012149 0.550000
v 0.017458 0.021891 0.550000
v 0.006231 0.027298 0.550000
v -0.006231 0.027298 0.550000
v -0.017458 0.021891 0.550000
v -0.025227 0.012149 0.550000
v -0.018000 -0.010000 0.520000
v -0.014562 -0.020580 0.520000
v -0.005562 -0.027119 0.520000
v 0.005562 -0.027119 0.520000
v 0.014562 -0.020580 0.520000
v 0.018000 -0.010000 0.520000
v 0.014562 0.000580 0.520000
v 0.005562 0.007119 0.520000
v -0.005562 0.007119 0.520000
v -0.014562 0.000580 0.520000
v -0.016457 -0.010000 0.571429
v -0.013314 -0.019673 0.571429
v -0.005086 -0.025652 0.571429
v 0.005086 -0.025652 0.571429
v 0.013314 -0.019673 0.571429
v 0.016457 -0.010000 0.571429
v 0.013314 -0.000327 0.571429
v 0.005086 0.005652 0.571429
v -0.005086 0.005652 0.571429
v -0.013314 -0.000327 0.571429
v -0.014914 -0.010000 0.622857
v -0.012066 -0.018766 0.622857
v -0.004609 -0.024184 0.622857
v 0.004609 -0.024184 0.622857
v 0.012066 -0.018766 0.622857
v 0.014914 -0.010000 0.622857
v 0.012066 -0.001234 0.622857
v 0.004609 0.004184 0.622857
v -0.004609 0.004184 0.622857
v -0.012066 -0.001234 0.622857
v -0.013371 -0.010000 0.674286
v -0.010818 -0.017860 0.674286
v -0.004132 -0.022717 0.674286
v 0.004132 -0.022717 0.674286
v 0.010818 -0.017860 0.674286
v 0.013371 -0.010000 0.674286
v 0.010818 -0.002140 0.674286
v 0.004132 0.002717 0.674286
v -0.004132 0.002717 0.674286
v -0.010818 -0.002140 0.674286
v -0.011829 -0.010000 0.725714
v -0.009570 -0.016953 0.725714
v -0.003655 -0.021250 0.725714
v 0.003655 -0.021250 0.725714
v 0.009570 -0.016953 0.725714
v 0.011829 -0.010000 0.725714
v 0.009570 -0.003047 0.725714
v 0.003655 0.001250 0.725714
v -0.003655 0.001250 0.725714
v -0.009570 -0.003047 0.725714
v -0.010286 -0.010000 0.777143
v -0.008321 -0.016046 0.777143
v -0.003178 -0.019782 0.777143
v 0.003178 -0.019782 0.777143
v 0.008321 -0.016046 0.777143
v 0.010286 -0.010000 0.777143
v 0.008321 -0.003954 0.777143
v 0.003178 -0.000218 0.777143
v -0.003178 -0.000218 0.777143
v -0.008321 -0.003954 0.777143
v -0.008743 -0.010000 0.828571
v -0.007073 -0.015139 0.828571
v -0.002702 -0.018315 0.828571
v 0.002702 -0.018315 0.828571
v 0.007073 -0.015139 0.828571
v 0.008743 -0.010000 0.828571
v 0.007073 -0.004861 0.828571
v 0.002702 -0.001685 0.828571
v -0.002702 -0.001685 0.828571
v -0.007073 -0.004861 0.828571
v -0.007200 -0.010000 0.880000
v -0.005825 -0.014232 0.880000
v -0.002225 -0.016848 0.880000
v 0.002225 -0.016848 0.880000
v 0.005825 -0.014232 0.880000
v 0.007200 -0.010000 0.880000
v 0.005825 -0.005768 0.880000
v 0.002225 -0.003152 0.880000
v -0.002225 -0.003152 0.880000
v -0.005825 -0.005768 0.880000
v -0.020000 -0.030000 0.860000
v 0.020000 -0.030000 0.860000
v 0.020000 0.010000 0.860000
v -0.020000 0.010000 0.860000
v -0.020000 -0.030000 0.980000
v -0.020000 0.010000 0.980000
v 0.020000 0.010000 0.980000
v 0.020000 -0.030000 0.980000
v -0.020000 -0.030000 0.860000
v -0.020000 -0.030000 0.980000
v 0.020000 -0.030000 0.980000
v 0.020000 -0.030000 0.860000
v 0.020000 0.010000 0.860000
v 0.020000 0.010000 0.980000
v -0.020000 0.010000 0.980000
v -0.020000 0.010000 0.860000
v -0.020000 -0.030000 0.860000
v -0.020000 0.010000 0.860000
v -0.020000 0.010000 0.980000
v -0.020000 -0.030000 0.980000
v 0.020000 -0.030000 0.860000
v 0.020000 -0.030000 0.980000
v 0.020000 0.010000 0.980000
v 0.020000 0.010000 0.860000
vt 0.000000 0.000000
vt 2.000000 0.000000
vt 0.000000 2.000000
vt 2.000000 2.000000
vt 0.000000 0.000000
vt 2.000000 0.000000
vt 0.000000 2.000000
vt 2.000000 2.000000
vt 0.000000 0.000000
vt 2.000000 0.000000
vt 0.000000 2.000000
vt 2.000000 2.000000
vt 0.000000 0.000000
vt 2.000000 0.000000
vt 0.000000 2.000000
vt 2.000000 2.000000
vt 0.000000 0.000000
vt 2.000000 0.000000
vt 0.000000 2.000000
vt 2.000000 2.000000
vt 0.000000 0.000000
vt 2.000000 0.000000
vt 0.000000 2.000000
vt 2.000000 2.000000
vt 0.000000 0.000000
vt 1.000000 0.000000
vt 0.000000 1.000000
vt 1.000000 1.000000
vt 0.000000 0.000000
vt 1.000000 0.000000
vt 0.000000 1.000000
vt 1.000000 1.000000
vt 0.000000 0.000000
vt 1.000000 0.000000
vt 0.000000 1.000000
vt 1.000000 1.000000
vt 0.000000 0.000000
vt 1.000000 0.000000
vt 0.000000 1.000000
vt 1.000000 1.000000
vt 0.000000 0.000000
vt 1.000000 0.000000
vt 0.000000 1.000000
vt 1.000000 1.000000
vt 0.000000 0.000000
vt 1.000000 0.000000
vt 0.000000 1.000000
vt 1.000000 1.000000
vt 0.000000 0.000000
vt 1.000000 0.000000
vt 0.000000 1.000000
vt 1.000000 1.000000
vt 0.000000 0.000000
vt 1.000000 0.000000
vt 0.000000 1.000000
vt 1.000000 1.000000
vt 0.000000 0.000000
vt 1.000000 0.000000
vt 0.000000 1.000000
vt 1.000000 1.000000
vt 0.000000 0.000000
vt 1.000000 0.000000
vt 0.000000 1.000000
vt 1.000000 1.000000
vt 0.000000 0.000000
vt 1.000000 0.000000
vt 0.000000 1.000000
vt 1.000000 1.000000
vt 0.000000 0.000000
vt 1.000000 0.000000
vt 0.000000 1.000000
vt 1.000000 1.000000
vt 0.000000 0.000000
vt 1.000000 0.000000
vt 0.000000 1.000000
vt 1.000000 1.000000
vt 0.000000 0.000000
vt 1.000000 0.000000
vt 0.000000 1.000000
vt 1.000000 1.000000
vt 0.000000 0.000000
vt 1.000000 0.000000
vt 0.000000 1.000000
vt 1.000000 1.000000
vt 0.000000 0.000000
vt 1.000000 0.000000
vt 0.000000 1.000000
vt 1.000000 1.000000
vt 0.000000 0.000000
vt 1.000000 0.000000
vt 0.000000 1.000000
vt 1.000000 1.000000
vt 0.000000 0.000000
vt 1.000000 0.000000
vt 0.000000 1.000000
vt 1.000000 1.000000
vt 0.000000 0.000000
vt 1.000000 0.000000
vt 0.000000 1.000000
vt 1.000000 1.000000
vt 0.000000 0.000000
vt 1.000000 0.000000
vt 0.000000 1.000000
vt 1.000000 1.000000
vt 0.000000 0.000000
vt 1.000000 0.000000
vt 0.000000 1.000000
vt 1.000000 1.000000
vt 0.000000 0.000000
vt 1.000000 0.000000
vt 0.000000 1.000000
vt 1.000000 1.000000
vt 0.000000 0.000000
vt 1.000000 0.000000
vt 0.000000 1.000000
vt 1.000000 1.000000
vt 0.000000 0.000000
vt 1.000000 0.000000
vt 0.000000 1.000000
vt 1.000000 1.000000
vt 0.000000 0.000000
vt 0.050000 0.000000
vt 0.100000 0.000000
vt 0.150000 0.000000
vt 0.200000 0.000000
vt 0.250000 0.000000
vt 0.300000 0.000000
vt 0.350000 0.000000
vt 0.400000 0.000000
vt 0.450000 0.000000
vt 0.500000 0.000000
vt 0.550000 0.000000
vt 0.600000 0.000000
vt 0.650000 0.000000
vt 0.700000 0.000000
vt 0.750000 0.000000
vt 0.800000 0.000000
vt 0.850000 0.000000
vt 0.900000 0.000000
vt 0.950000 0.000000
vt 0.000000 0.142857
vt 0.050000 0.142857
vt 0.100000 0.142857
vt 0.150000 0.142857
vt 0.200000 0.142857
vt 0.250000 0.142857
vt 0.300000 0.142857
vt 0.350000 0.142857
vt 0.400000 0.142857
vt 0.450000 0.142857
vt 0.500000 0.142857
vt 0.550000 0.142857
vt 0.600000 0.142857
vt 0.650000 0.142857
vt 0.700000 0.142857
vt 0.750000 0.142857
vt 0.800000 0.142857
vt 0.850000 0.142857
vt 0.900000 0.142857
vt 0.950000 0.142857
vt 0.000000 0.285714
vt 0.050000 0.285714
vt 0.100000 0.285714
vt 0.150000 0.285714
vt 0.200000 0.285714
vt 0.250000 0.285714
vt 0.300000 0.285714
vt 0.350000 0.285714
vt 0.400000 0.285714
vt 0.450000 0.285714
vt 0.500000 0.285714
vt 0.550000 0.285714
vt 0.600000 0.285714
vt 0.650000 0.285714
vt 0.700000 0.285714
vt 0.750000 0.285714
vt 0.800000 0.285714
vt 0.850000 0.285714
vt 0.900000 0.285714
vt 0.950000 0.285714
vt 0.000000 0.428571
vt 0.050000 0.428571
vt 0.100000 0.428571
vt 0.150000 0.428571
vt 0.200000 0.428571
vt 0.250000 0.428571
vt 0.300000 0.428571
vt 0.350000 0.428571
vt 0.400000 0.428571
vt 0.450000 0.428571
vt 0.500000 0.428571
vt 0.550000 0.428571
vt 0.600000 0.428571
vt 0.650000 0.428571
vt 0.700000 0.428571
vt 0.750000 0.428571
vt 0.800000 0.428571
vt 0.850000 0.428571
vt 0.900000 0.428571
vt 0.950000 0.428571
vt 0.000000 0.571429
vt 0.050000 0.571429
vt 0.100000 0.571429
vt 0.150000 0.571429
vt 0.200000 0.571429
vt 0.250000 0.571429
vt 0.300000 0.571429
vt 0.350000 0.571429
vt 0.400000 0.571429
vt 0.450000 0.571429
vt 0.500000 0.571429
vt 0.550000 0.571429
vt 0.600000 0.571429
vt 0.650000 0.571429
vt 0.700000 0.571429
vt 0.750000 0.571429
vt 0.800000 0.571429
vt 0.850000 0.571429
vt 0.900000 0.571429
vt 0.950000 0.571429
vt 0.000000 0.714286
vt 0.050000 0.714286
vt 0.100000 0.714286
vt 0.150000 0.714286
vt 0.200000 0.714286
vt 0.250000 0.714286
vt 0.300000 0.714286
vt 0.350000 0.714286
vt 0.400000 0.714286
vt 0.450000 0.714286
vt 0.500000 0.714286
vt 0.550000 0.714286
vt 0.600000 0.714286
vt 0.650000 0.714286
vt 0.700000 0.714286
vt 0.750000 0.714286
vt 0.800000 0.714286
vt 0.850000 0.714286
vt 0.900000 0.714286
vt 0.950000 0.714286
vt 0.000000 0.857143
vt 0.050000 0.857143
vt 0.100000 0.857143
vt 0.150000 0.857143
vt 0.200000 0.857143
vt 0.250000 0.857143
vt 0.300000 0.857143
vt 0.350000 0.857143
vt 0.400000 0.857143
vt 0.450000 0.857143
vt 0.500000 0.857143
vt 0.550000 0.857143
vt 0.600000 0.857143
vt 0.650000 0.857143
vt 0.700000 0.857143
vt 0.750000 0.857143
vt 0.800000 0.857143
vt 0.850000 0.857143
vt 0.900000 0.857143
vt 0.950000 0.857143
vt 0.000000 1.000000
vt 0.050000 1.000000
vt 0.100000 1.000000
vt 0.150000 1.000000
vt 0.200000 1.000000
vt 0.250000 1.000000
vt 0.300000 1.000000
vt 0.350000 1.000000
vt 0.400000 1.000000
vt 0.450000 1.000000
vt 0.500000 1.000000
vt 0.550000 1.000000
vt 0.600000 1.000000
vt 0.650000 1.000000
vt 0.700000 1.000000
vt 0.750000 1.000000
vt 0.800000 1.000000
vt 0.850000 1.000000
vt 0.900000 1.000000
vt 0.950000 1.000000
vt 0.000000 0.000000
vt 0.071429 0.000000
vt 0.142857 0.000000
vt 0.214286 0.000000
vt 0.285714 0.000000
vt 0.357143 0.000000
vt 0.428571 0.000000
vt 0.500000 0.000000
vt 0.571429 0.000000
vt 0.642857 0.000000
vt 0.714286 0.000000
vt 0.785714 0.000000
vt 0.857143 0.000000
vt 0.928571 0.000000
vt 0.000000 0.142857
vt 0.071429 0.142857
vt 0.142857 0.142857
vt 0.214286 0.142857
vt 0.285714 0.142857
vt 0.357143 0.142857
vt 0.428571 0.142857
vt 0.500000 0.142857
vt 0.571429 0.142857
vt 0.642857 0.142857
vt 0.714286 0.142857
vt 0.785714 0.142857
vt 0.857143 0.142857
vt 0.928571 0.142857
vt 0.000000 0.285714
vt 0.071429 0.285714
vt 0.142857 0.285714
vt 0.214286 0.285714
vt 0.285714 0.285714
vt 0.357143 0.285714
vt 0.428571 0.285714
vt 0.500000 0.285714
vt 0.571429 0.285714
vt 0.642857 0.285714
vt 0.714286 0.285714
vt 0.785714 0.285714
vt 0.857143 0.285714
vt 0.928571 0.285714
vt 0.000000 0.428571
vt 0.071429 0.428571
vt 0.142857 0.428571
vt 0.214286 0.428571
vt 0.285714 0.428571
vt 0.357143 0.428571
vt 0.428571 0.428571
vt 0.500000 0.428571
vt 0.571429 0.428571
vt 0.642857 0.428571
vt 0.714286 0.428571
vt 0.785714 0.428571
vt 0.857143 0.428571
vt 0.928571 0.428571
vt 0.000000 0.571429
vt 0.071429 0.571429
vt 0.142857 0.571429
vt 0.214286 0.571429
vt 0.285714 0.571429
vt 0.357143 0.571429
vt 0.428571 0.571429
vt 0.500000 0.571429
vt 0.571429 0.571429
vt 0.642857 0.571429
vt 0.714286 0.571429
vt 0.785714 0.571429
vt 0.857143 0.571429
vt 0.928571 0.571429
vt 0.000000 0.714286
vt 0.071429 0.714286
vt 0.142857 0.714286
vt 0.214286 0.714286
vt 0.285714 0.714286
vt 0.357143 0.714286
vt 0.428571 0.714286
vt 0.500000 0.714286
vt 0.571429 0.714286
vt 0.642857 0.714286
vt 0.714286 0.714286
vt 0.785714 0.714286
vt 0.857143 0.714286
vt 0.928571 0.714286
vt 0.000000 0.857143
vt 0.071429 0.857143
vt 0.142857 0.857143
vt 0.214286 0.857143
vt 0.285714 0.857143
vt 0.357143 0.857143
vt 0.428571 0.857143
vt 0.500000 0.857143
vt 0.571429 0.857143
vt 0.642857 0.857143
vt 0.714286 0.857143
vt 0.785714 0.857143
vt 0.857143 0.857143
vt 0.928571 0.857143
vt 0.000000 1.000000
vt 0.071429 1.000000
vt 0.142857 1.000000
vt 0.214286 1.000000
vt 0.285714 1.000000
vt 0.357143 1.000000
vt 0.428571 1.000000
vt 0.500000 1.000000
vt 0.571429 1.000000
vt 0.642857 1.000000
vt 0.714286 1.000000
vt 0.785714 1.000000
vt 0.857143 1.000000
vt 0.928571 1.000000
vt 0.000000 0.000000
vt 0.100000 0.000000
vt 0.200000 0.000000
vt 0.300000 0.000000
vt 0.400000 0.000000
vt 0.500000 0.000000
vt 0.600000 0.000000
vt 0.700000 0.000000
vt 0.800000 0.000000
vt 0.900000 0.000000
vt 0.000000 0.142857
vt 0.100000 0.142857
vt 0.200000 0.142857
vt 0.300000 0.142857
vt 0.400000 0.142857
vt 0.500000 0.142857
vt 0.600000 0.142857
vt 0.700000 0.142857
vt 0.800000 0.142857
vt 0.900000 0.142857
vt 0.000000 0.285714
vt 0.100000 0.285714
vt 0.200000 0.285714
vt 0.300000 0.285714
vt 0.400000 0.285714
vt 0.500000 0.285714
vt 0.600000 0.285714
vt 0.700000 0.285714
vt 0.800000 0.285714
vt 0.900000 0.285714
vt 0.000000 0.428571
vt 0.100000 0.428571
vt 0.200000 0.428571
vt 0.300000 0.428571
vt 0.400000 0.428571
vt 0.500000 0.428571
vt 0.600000 0.428571
vt 0.700000 0.428571
vt 0.800000 0.428571
vt 0.900000 0.428571
vt 0.000000 0.571429
vt 0.100000 0.571429
vt 0.200000 0.571429
vt 0.300000 0.571429
vt 0.400000 0.571429
vt 0.500000 0.571429
vt 0.600000 0.571429
vt 0.700000 0.571429
vt 0.800000 0.571429
vt 0.900000 0.571429
vt 0.000000 0.714286
vt 0.100000 0.714286
vt 0.200000 0.714286
vt 0.300000 0.714286
vt 0.400000 0.714286
vt 0.500000 0.714286
vt 0.600000 0.714286
vt 0.700000 0.714286
vt 0.800000 0.714286
vt 0.900000 0.714286
vt 0.000000 0.857143
vt 0.100000 0.857143
vt 0.200000 0.857143
vt 0.300000 0.857143
vt 0.400000 0.857143
vt 0.500000 0.857143
vt 0.600000 0.857143
vt 0.700000 0.857143
vt 0.800000 0.857143
vt 0.900000 0.857143
vt 0.000000 1.000000
vt 0.100000 1.000000
vt 0.200000 1.000000
vt 0.300000 1.000000
vt 0.400000 1.000000
vt 0.500000 1.000000
vt 0.600000 1.000000
vt 0.700000 1.000000
vt 0.800000 1.000000
vt 0.900000 1.000000
vt 0.000000 0.000000
vt 1.000000 0.000000
vt 0.000000 1.000000
vt 1.000000 1.000000
vt 0.000000 0.000000
vt 1.000000 0.000000
vt 0.000000 1.000000
vt 1.000000 1.000000
vt 0.000000 0.000000
vt 1.000000 0.000000
vt 0.000000 1.000000
vt 1.000000 1.000000
vt 0.000000 0.000000
vt 1.000000 0.000000
vt 0.000000 1.000000
vt 1.000000 1.000000
vt 0.000000 0.000000
vt 1.000000 0.000000
vt 0.000000 1.000000
vt 1.000000 1.000000
vt 0.000000 0.000000
vt 1.000000 0.000000
vt 0.000000 1.000000
vt 1.000000 1.000000
vn 0.000000 0.000000 1.000000
vn 0.000000 0.000000 1.000000
vn 0.000000 0.000000 1.000000
vn 0.000000 0.000000 1.000000
vn 0.000000 0.000000 -1.000000
vn 0.000000 0.000000 -1.000000
vn 0.000000 0.000000 -1.000000
vn 0.000000 0.000000 -1.000000
vn 0.000000 1.000000 0.000000
vn 0.000000 1.000000 0.000000
vn 0.000000 1.000000 0.000000
vn 0.000000 1.000000 0.000000
vn 0.000000 -1.000000 0.000000
vn 0.000000 -1.000000 0.000000
vn 0.000000 -1.000000 0.000000
vn 0.000000 -1.000000 0.000000
vn 1.000000 0.000000 0.000000
vn 1.000000 0.000000 0.000000
vn 1.000000 0.000000 0.000000
vn 1.000000 0.000000 0.000000
vn -1.000000 0.000000 0.000000
vn -1.000000 0.000000 0.000000
vn -1.000000 0.000000 0.000000
vn -1.000000 0.000000 0.000000
vn 0.000000 0.000000 1.000000
vn 0.000000 0.000000 1.000000
vn 0.000000 0.000000 1.000000
vn 0.000000 0.000000 1.000000
vn 0.000000 0.000000 -1.000000
vn 0.000000 0.000000 -1.000000
vn 0.000000 0.000000 -1.000000
vn 0.000000 0.000000 -1.000000
vn 0.000000 1.000000 0.000000
vn 0.000000 1.000000 0.000000
vn 0.000000 1.000000 0.000000
vn 0.000000 1.000000 0.000000
vn 0.000000 -1.000000 0.000000
vn 0.000000 -1.000000 0.000000
vn 0.000000 -1.000000 0.000000
vn 0.000000 -1.000000 0.000000
vn 1.000000 0.000000 0.000000
vn 1.000000 0.000000 0.000000
vn 1.000000 0.000000 0.000000
vn 1.000000 0.000000 0.000000
vn -1.000000 0.000000 0.000000
vn -1.000000 0.000000 0.000000
vn -1.000000 0.000000 0.000000
vn -1.000000 0.000000 0.000000
vn 0.000000 0.000000 1.000000
vn 0.000000 0.000000 1.000000
vn 0.000000 0.000000 1.000000
vn 0.000000 0.000000 1.000000
vn 0.000000 0.000000 -1.000000
vn 0.000000 0.000000 -1.000000
vn 0.000000 0.000000 -1.000000
vn 0.000000 0.000000 -1.000000
vn 0.000000 1.000000 0.000000
vn 0.000000 1.000000 0.000000
vn 0.000000 1.000000 0.000000
vn 0.000000 1.000000 0.000000
vn 0.000000 -1.000000 0.000000
vn 0.000000 -1.000000 0.000000
vn 0.000000 -1.000000 0.000000
vn 0.000000 -1.000000 0.000000
vn 1.000000 0.000000 0.000000
vn 1.000000 0.000000 0.000000
vn 1.000000 0.000000 0.000000
vn 1.000000 0.000000 0.000000
vn -1.000000 0.000000 0.000000
vn -1.000000 0.000000 0.000000
vn -1.000000 0.000000 0.000000
vn -1.000000 0.000000 0.000000
vn 0.000000 0.000000 1.000000
vn 0.000000 0.000000 1.000000
vn 0.000000 0.000000 1.000000
vn 0.000000 0.000000 1.000000
vn 0.000000 0.000000 -1.000000
vn 0.000000 0.000000 -1.000000
vn 0.000000 0.000000 -1.000000
vn 0.000000 0.000000 -1.000000
vn 0.000000 1.000000 0.000000
vn 0.000000 1.000000 0.000000
vn 0.000000 1.000000 0.000000
vn 0.000000 1.000000 0.000000
vn 0.000000 -1.000000 0.000000
vn 0.000000 -1.000000 0.000000
vn 0.000000 -1.000000 0.000000
vn 0.000000 -1.000000 0.000000
vn 1.000000 0.000000 0.000000
vn 1.000000 0.000000 0.000000
vn 1.000000 0.000000 0.000000
vn 1.000000 0.000000 0.000000
vn -1.000000 0.000000 0.000000
vn -1.000000 0.000000 0.000000
vn -1.000000 0.000000 0.000000
vn -1.000000 0.000000 0.000000
vn 0.000000 0.000000 1.000000
vn 0.000000 0.000000 1.000000
vn 0.000000 0.000000 1.000000
vn 0.000000 0.000000 1.000000
vn 0.000000 0.000000 -1.000000
vn 0.000000 0.000000 -1.000000
vn 0.000000 0.000000 -1.000000
vn 0.000000 0.000000 -1.000000
vn 0.000000 0.999999 0.000000
vn 0.000000 0.999999 0.000000
vn 0.000000 0.999999 0.000000
vn 0.000000 0.999999 0.000000
vn 0.000000 -0.999999 0.000000
vn 0.000000 -0.999999 0.000000
vn 0.000000 -0.999999 0.000000
vn 0.000000 -0.999999 0.000000
vn 1.000000 0.000000 0.000000
vn 1.000000 0.000000 0.000000
vn 1.000000 0.000000 0.000000
vn 1.000000 0.000000 0.000000
vn -1.000000 0.000000 0.000000
vn -1.000000 0.000000 0.000000
vn -1.000000 0.000000 0.000000
vn -1.000000 0.000000 0.000000
vn 0.000000 0.000000 1.000000
vn 0.000000 -0.309017 0.951056
vn 0.000000 -0.587785 0.809017
vn 0.000000 -0.809017 0.587785
vn 0.000000 -0.951056 0.309017
vn 0.000000 -1.000000 0.000000
vn 0.000000 -0.951056 -0.309017
vn 0.000000 -0.809017 -0.587785
vn 0.000000 -0.587785 -0.809017
vn 0.000000 -0.309017 -0.951056
vn 0.000000 -0.000000 -1.000000
vn -0.000000 0.309017 -0.951056
vn -0.000000 0.587785 -0.809017
vn -0.000000 0.809017 -0.587785
vn -0.000000 0.951056 -0.309017
vn -0.000000 1.000000 -0.000000
vn 0.000000 0.951056 0.309017
vn 0.000000 0.809017 0.587785
vn 0.000000 0.587785 0.809017
vn 0.000000 0.309017 0.951056
vn 0.000000 0.000000 1.000000
vn 0.000000 -0.309017 0.951056
vn 0.000000 -0.587785 0.809017
vn 0.000000 -0.809017 0.587785
vn 0.000000 -0.951056 0.309017
vn 0.000000 -1.000000 0.000000
vn 0.000000 -0.951056 -0.309017
vn 0.000000 -0.809017 -0.587785
vn 0.000000 -0.587785 -0.809017
vn 0.000000 -0.309017 -0.951056
vn 0.000000 -0.000000 -1.000000
vn -0.000000 0.309017 -0.951056
vn -0.000000 0.587785 -0.809017
vn -0.000000 0.809017 -0.587785
vn -0.000000 0.951056 -0.309017
vn -0.000000 1.000000 -0.000000
vn 0.000000 0.951056 0.309017
vn 0.000000 0.809017 0.587785
vn 0.000000 0.587785 0.809017
vn 0.000000 0.309017 0.951056
vn 0.000000 0.000000 1.000000
vn 0.000000 -0.309017 0.951056
vn 0.000000 -0.587785 0.809017
vn 0.000000 -0.809017 0.587785
vn 0.000000 -0.951056 0.309017
vn 0.000000 -1.000000 0.000000
vn 0.000000 -0.951056 -0.309017
vn 0.000000 -0.809017 -0.587785
vn 0.000000 -0.587785 -0.809017
vn 0.000000 -0.309017 -0.951056
vn 0.000000 -0.000000 -1.000000
vn -0.000000 0.309017 -0.951056
vn -0.000000 0.587785 -0.809017
vn -0.000000 0.809017 -0.587785
vn -0.000000 0.951056 -0.309017
vn -0.000000 1.000000 -0.000000
vn 0.000000 0.951056 0.309017
vn 0.000000 0.809017 0.587785
vn 0.000000 0.587785 0.809017
vn 0.000000 0.309017 0.951056
vn 0.000000 0.000000 1.000000
vn 0.000000 -0.309017 0.951056
vn 0.000000 -0.587785 0.809017
vn 0.000000 -0.809017 0.587785
vn 0.000000 -0.951056 0.309017
vn 0.000000 -1.000000 0.000000
vn 0.000000 -0.951056 -0.309017
vn 0.000000 -0.809017 -0.587785
vn 0.000000 -0.587785 -0.809017
vn 0.000000 -0.309017 -0.951056
vn 0.000000 -0.000000 -1.000000
vn -0.000000 0.309017 -0.951056
vn -0.000000 0.587785 -0.809017
vn -0.000000 0.809017 -0.587785
vn -0.000000 0.951056 -0.309017
vn -0.000000 1.000000 -0.000000
vn 0.000000 0.951056 0.309017
vn 0.000000 0.809017 0.587785
vn 0.000000 0.587785 0.809017
vn 0.000000 0.309017 0.951056
vn 0.000000 0.000000 1.000000
vn 0.000000 -0.309017 0.951056
vn 0.000000 -0.587785 0.809017
vn 0.000000 -0.809017 0.587785
vn 0.000000 -0.951056 0.309017
vn 0.000000 -1.000000 0.000000
vn 0.000000 -0.951056 -0.309017
vn 0.000000 -0.809017 -0.587785
vn 0.000000 -0.587785 -0.809017
vn 0.000000 -0.309017 -0.951056
vn 0.000000 -0.000000 -1.000000
vn -0.000000 0.309017 -0.951056
vn -0.000000 0.587785 -0.809017
vn -0.000000 0.809017 -0.587785
vn -0.000000 0.951056 -0.309017
vn -0.000000 1.000000 -0.000000
vn 0.000000 0.951056 0.309017
vn 0.000000 0.809017 0.587785
vn 0.000000 0.587785 0.809017
vn 0.000000 0.309017 0.951056
vn 0.000000 0.000000 1.000000
vn 0.000000 -0.309017 0.951056
vn 0.000000 -0.587785 0.809017
vn 0.000000 -0.809017 0.587785
vn 0.000000 -0.951056 0.309017
vn 0.000000 -1.000000 0.000000
vn 0.000000 -0.951056 -0.309017
vn 0.000000 -0.809017 -0.587785
vn 0.000000 -0.587785 -0.809017
vn 0.000000 -0.309017 -0.951056
vn 0.000000 -0.000000 -1.000000
vn -0.000000 0.309017 -0.951056
vn -0.000000 0.587785 -0.809017
vn -0.000000 0.809017 -0.587785
vn -0.000000 0.951056 -0.309017
vn -0.000000 1.000000 -0.000000
vn 0.000000 0.951056 0.309017
vn 0.000000 0.809017 0.587785
vn 0.000000 0.587785 0.809017
vn 0.000000 0.309017 0.951056
vn 0.000000 0.000000 1.000000
vn 0.000000 -0.309017 0.951056
vn 0.000000 -0.587785 0.809017
vn 0.000000 -0.809017 0.587785
vn 0.000000 -0.951056 0.309017
vn 0.000000 -1.000000 0.000000
vn 0.000000 -0.951056 -0.309017
vn 0.000000 -0.809017 -0.587785
vn 0.000000 -0.587785 -0.809017
vn 0.000000 -0.309017 -0.951056
vn 0.000000 -0.000000 -1.000000
vn -0.000000 0.309017 -0.951056
vn -0.000000 0.587785 -0.809017
vn -0.000000 0.809017 -0.587785
vn -0.000000 0.951056 -0.309017
vn -0.000000 1.000000 -0.000000
vn 0.000000 0.951056 0.309017
vn 0.000000 0.809017 0.587785
vn 0.000000 0.587785 0.809017
vn 0.000000 0.309017 0.951056
vn 0.000000 0.000000 1.000000
vn 0.000000 -0.309017 0.951056
vn 0.000000 -0.587785 0.809017
vn 0.000000 -0.809017 0.587785
vn 0.000000 -0.951056 0.309017
vn 0.000000 -1.000000 0.000000
vn 0.000000 -0.951056 -0.309017
vn 0.000000 -0.809017 -0.587785
vn 0.000000 -0.587785 -0.809017
vn 0.000000 -0.309017 -0.951056
vn 0.000000 -0.000000 -1.000000
vn -0.000000 0.309017 -0.951056
vn -0.000000 0.587785 -0.809017
vn -0.000000 0.809017 -0.587785
vn -0.000000 0.951056 -0.309017
vn -0.000000 1.000000 -0.000000
vn 0.000000 0.951056 0.309017
vn 0.000000 0.809017 0.587785
vn 0.000000 0.587785 0.809017
vn 0.000000 0.309017 0.951056
vn -1.000000 0.000000 0.000000
vn -0.900969 -0.433884 0.000000
vn -0.623490 -0.781831 0.000000
vn -0.222521 -0.974928 0.000000
vn 0.222521 -0.974928 0.000000
vn 0.623490 -0.781831 0.000000
vn 0.900969 -0.433884 0.000000
vn 1.000000 -0.000000 0.000000
vn 0.900969 0.433884 -0.000000
vn 0.623490 0.781831 -0.000000
vn 0.222521 0.974928 -0.000000
vn -0.222521 0.974928 0.000000
vn -0.623490 0.781831 0.000000
vn -0.900969 0.433884 0.000000
vn -1.000000 0.000000 0.000000
vn -0.900969 -0.433884 0.000000
vn -0.623490 -0.781831 0.000000
vn -0.222521 -0.974928 0.000000
vn 0.222521 -0.974928 0.000000
vn 0.623490 -0.781831 0.000000
vn 0.900969 -0.433884 0.000000
vn 1.000000 -0.000000 0.000000
vn 0.900969 0.433884 -0.000000
vn 0.623490 0.781831 -0.000000
vn 0.222521 0.974928 -0.000000
vn -0.222521 0.974928 0.000000
vn -0.623490 0.781831 0.000000
vn -0.900969 0.433884 0.000000
vn -1.000000 0.000000 0.000000
vn -0.900969 -0.433884 0.000000
vn -0.623490 -0.781831 0.000000
vn -0.222521 -0.974928 0.000000
vn 0.222521 -0.974928 0.000000
vn 0.623490 -0.781831 0.000000
vn 0.900969 -0.433884 0.000000
vn 1.000000 -0.000000 0.000000
vn 0.900969 0.433884 -0.000000
vn 0.623490 0.781831 -0.000000
vn 0.222521 0.974928 -0.000000
vn -0.222521 0.974928 0.000000
vn -0.623490 0.781831 0.000000
vn -0.900969 0.433884 0.000000
vn -1.000000 0.000000 0.000000
vn -0.900969 -0.433884 0.000000
vn -0.623490 -0.781831 0.000000
vn -0.222521 -0.974928 0.000000
vn 0.222521 -0.974928 0.000000
vn 0.623490 -0.781831 0.000000
vn 0.900969 -0.433884 0.000000
vn 1.000000 -0.000000 0.000000
vn 0.900969 0.433884 -0.000000
vn 0.623490 0.781831 -0.000000
vn 0.222521 0.974928 -0.000000
vn -0.222521 0.974928 0.000000
vn -0.623490 0.781831 0.000000
vn -0.900969 0.433884 0.000000
vn -1.000000 0.000000 0.000000
vn -0.900969 -0.433884 0.000000
vn -0.623490 -0.781831 0.000000
vn -0.222521 -0.974928 0.000000
vn 0.222521 -0.974928 0.000000
vn 0.623490 -0.781831 0.000000
vn 0.900969 -0.433884 0.000000
vn 1.000000 -0.000000 0.000000
vn 0.900969 0.433884 -0.000000
vn 0.623490 0.781831 -0.000000
vn 0.222521 0.974928 -0.000000
vn -0.222521 0.974928 0.000000
vn -0.623490 0.781831 0.000000
vn -0.900969 0.433884 0.000000
vn -1.000000 0.000000 0.000000
vn -0.900969 -0.433884 0.000000
vn -0.623490 -0.781831 0.000000
vn -0.222521 -0.974928 0.000000
vn 0.222521 -0.974928 0.000000
vn 0.623490 -0.781831 0.000000
vn 0.900969 -0.433884 0.000000
vn 1.000000 -0.000000 0.000000
vn 0.900969 0.433884 -0.000000
vn 0.623490 0.781831 -0.000000
vn 0.222521 0.974928 -0.000000
vn -0.222521 0.974928 0.000000
vn -0.623490 0.781831 0.000000
vn -0.900969 0.433884 0.000000
vn -1.000000 0.000000 0.000000
vn -0.900969 -0.433884 0.000000
vn -0.623490 -0.781831 0.000000
vn -0.222521 -0.974928 0.000000
vn 0.222521 -0.974928 0.000000
vn 0.623490 -0.781831 0.000000
vn 0.900969 -0.433884 0.000000
vn 1.000000 -0.000000 0.000000
vn 0.900969 0.433884 -0.000000
vn 0.623490 0.781831 -0.000000
vn 0.222521 0.974928 -0.000000
vn -0.222521 0.974928 0.000000
vn -0.623490 0.781831 0.000000
vn -0.900969 0.433884 0.000000
vn -1.000000 0.000000 0.000000
vn -0.900969 -0.433884 0.000000
vn -0.623490 -0.781831 0.000000
vn -0.222521 -0.974928 0.000000
vn 0.222521 -0.974928 0.000000
vn 0.623490 -0.781831 0.000000
vn 0.900969 -0.433884 0.000000
vn 1.000000 -0.000000 0.000000
vn 0.900969 0.433884 -0.000000
vn 0.623490 0.781831 -0.000000
vn 0.222521 0.974928 -0.000000
vn -0.222521 0.974928 0.000000
vn -0.623490 0.781831 0.000000
vn -0.900969 0.433884 0.000000
vn -1.000000 0.000000 0.000000
vn -0.809017 -0.587785 0.000000
vn -0.309017 -0.951056 0.000000
vn 0.309017 -0.951056 0.000000
vn 0.809017 -0.587785 0.000000
vn 1.000000 -0.000000 0.000000
vn 0.809017 0.587785 -0.000000
vn 0.309017 0.951056 -0.000000
vn -0.309017 0.951056 0.000000
vn -0.809017 0.587785 0.000000
vn -1.000000 0.000000 0.000000
vn -0.809017 -0.587785 0.000000
vn -0.309017 -0.951056 0.000000
vn 0.309017 -0.951056 0.000000
vn 0.809017 -0.587785 0.000000
vn 1.000000 -0.000000 0.000000
vn 0.809017 0.587785 -0.000000
vn 0.309017 0.951056 -0.000000
vn -0.309017 0.951056 0.000000
vn -0.809017 0.587785 0.000000
vn -1.000000 0.000000 0.000000
vn -0.809017 -0.587785 0.000000
vn -0.309017 -0.951056 0.000000
vn 0.309017 -0.951056 0.000000
vn 0.809017 -0.587785 0.000000
vn 1.000000 -0.000000 0.000000
vn 0.809017 0.587785 -0.000000
vn 0.309017 0.951056 -0.000000
vn -0.309017 0.951056 0.000000
vn -0.809017 0.587785 0.000000
vn -1.000000 0.000000 0.000000
vn -0.809017 -0.587785 0.000000
vn -0.309017 -0.951056 0.000000
vn 0.309017 -0.951056 0.000000
vn 0.809017 -0.587785 0.000000
vn 1.000000 -0.000000 0.000000
vn 0.809017 0.587785 -0.000000
vn 0.309017 0.951056 -0.000000
vn -0.309017 0.951056 0.000000
vn -0.809017 0.587785 0.000000
vn -1.000000 0.000000 0.000000
vn -0.809017 -0.587785 0.000000
vn -0.309017 -0.951056 0.000000
vn 0.309017 -0.951056 0.000000
vn 0.809017 -0.587785 0.000000
vn 1.000000 -0.000000 0.000000
vn 0.809017 0.587785 -0.000000
vn 0.309017 0.951056 -0.000000
vn -0.309017 0.951056 0.000000
vn -0.809017 0.587785 0.000000
vn -1.000000 0.000000 0.000000
vn -0.809017 -0.587785 0.000000
vn -0.309017 -0.951056 0.000000
vn 0.309017 -0.951056 0.000000
vn 0.809017 -0.587785 0.000000
vn 1.000000 -0.000000 0.000000
vn 0.809017 0.587785 -0.000000
vn 0.309017 0.951056 -0.000000
vn -0.309017 0.951056 0.000000
vn -0.809017 0.587785 0.000000
vn -1.000000 0.000000 0.000000
vn -0.809017 -0.587785 0.000000
vn -0.309017 -0.951056 0.000000
vn 0.309017 -0.951056 0.000000
vn 0.809017 -0.587785 0.000000
vn 1.000000 -0.000000 0.000000
vn 0.809017 0.587785 -0.000000
vn 0.309017 0.951056 -0.000000
vn -0.309017 0.951056 0.000000
vn -0.809017 0.587785 0.000000
vn -1.000000 0.000000 0.000000
vn -0.809017 -0.587785 0.000000
vn -0.309017 -0.951056 0.000000
vn 0.309017 -0.951056 0.000000
vn 0.809017 -0.587785 0.000000
vn 1.000000 -0.000000 0.000000
vn 0.809017 0.587785 -0.000000
vn 0.309017 0.951056 -0.000000
vn -0.309017 0.951056 0.000000
vn -0.809017 0.587785 0.000000
vn 0.000000 0.000000 0.999999
vn 0.000000 0.000000 0.999999
vn 0.000000 0.000000 0.999999
vn 0.000000 0.000000 0.999999
vn 0.000000 0.000000 -0.999999
vn 0.000000 0.000000 -0.999999
vn 0.000000 0.000000 -0.999999
vn 0.000000 0.000000 -0.999999
vn 0.000000 1.000000 0.000000
vn 0.000000 1.000000 0.000000
vn 0.000000 1.000000 0.000000
vn 0.000000 1.000000 0.000000
vn 0.000000 -1.000000 0.000000
vn 0.000000 -1.000000 0.000000
vn 0.000000 -1.000000 0.000000
vn 0.000000 -1.000000 0.000000
vn 1.000000 0.000000 0.000000
vn 1.000000 0.000000 0.000000
vn 1.000000 0.000000 0.000000
vn 1.000000 0.000000 0.000000
vn -1.000000 0.000000 0.000000
vn -1.000000 0.000000 0.000000
vn -1.000000 0.000000 0.000000
vn -1.000000 0.000000 0.000000
f 1/1/1 2/2/2 3/3/3
f 1/1/1 3/3/3 4/4/4
f 5/5/5 6/6/6 7/7/7
f 5/5/5 7/7/7 8/8/8
f 9/9/9 10/10/10 11/11/11
f 9/9/9 11/11/11 12/12/12
f 13/13/13 14/14/14 15/15/15
f 13/13/13 15/15/15 16/16/16
f 17/17/17 18/18/18 19/19/19
f 17/17/17 19/19/19 20/20/20
f 21/21/21 22/22/22 23/23/23
f 21/21/21 23/23/23 24/24/24
f 25/25/25 26/26/26 27/27/27
f 25/25/25 27/27/27 28/28/28
f 29/29/29 30/30/30 31/31/31
f 29/29/29 31/31/31 32/32/32
f 33/33/33 34/34/34 35/35/35
f 33/33/33 35/35/35 36/36/36
f 37/37/37 38/38/38 39/39/39
f 37/37/37 39/39/39 40/40/40
f 41/41/41 42/42/42 43/43/43
f 41/41/41 43/43/43 44/44/44
f 45/45/45 46/46/46 47/47/47
f 45/45/45 47/47/47 48/48/48
f 49/49/49 50/50/50 51/51/51
f 49/49/49 51/51/51 52/52/52
f 53/53/53 54/54/54 55/55/55
f 53/53/53 55/55/55 56/56/56
f 57/57/57 58/58/58 59/59/59
f 57/57/57 59/59/59 60/60/60
f 61/61/61 62/62/62 63/63/63
f 61/61/61 63/63/63 64/64/64
f 65/65/65 66/66/66 67/67/67
f 65/65/65 67/67/67 68/68/68
f 69/69/69 70/70/70 71/71/71
f 69/69/69 71/71/71 72/72/72
f 73/73/73 74/74/74 75/75/75
f 73/73/73 75/75/75 76/76/76
f 77/77/77 78/78/78 79/79/79
f 77/77/77 79/79/79 80/80/80
f 81/81/81 82/82/82 83/83/83
f 81/81/81 83/83/83 84/84/84
f 85/85/85 86/86/86 87/87/87
f 85/85/85 87/87/87 88/88/88
f 89/89/89 90/90/90 91/91/91
f 89/89/89 91/91/91 92/92/92
f 93/93/93 94/94/94 95/95/95
f 93/93/93 95/95/95 96/96/96
f 97/97/97 98/98/98 99/99/99
f 97/97/97 99/99/99 100/100/100
f 101/101/101 102/102/102 103/103/103
f 101/101/101 103/103/103 104/104/104
f 105/105/105 106/106/106 107/107/107
f 105/105/105 107/107/107 108/108/108
f 109/109/109 110/110/110 111/111/111
f 109/109/109 111/111/111 112/112/112
f 113/113/113 114/114/114 115/115/115
f 113/113/113 115/115/115 116/116/116
f 117/117/117 118/118/118 119/119/119
f 117/117/117 119/119/119 120/120/120
f 121/121/121 122/122/122 142/142/142
f 121/121/121 142/142/142 141/141/141
f 122/122/122 123/123/123 143/143/143
f 122/122/122 143/143/143 142/142/142
f 123/123/123 124/124/124 144/144/144
f 123/123/123 144/144/144 143/143/143
f 124/124/124 125/125/125 145/145/145
f 124/124/124 145/145/145 144/144/144
f 125/125/125 126/126/126 146/146/146
f 125/125/125 146/146/146 145/145/145
f 126/126/126 127/127/127 147/147/147
f 126/126/126 147/147/147 146/146/146
f 127/127/127 128/128/128 148/148/148
f 127/127/127 148/148/148 147/147/147
f 128/128/128 129/129/129 149/149/149
f 128/128/128 149/149/149 148/148/148
f 129/129/129 130/130/130 150/150/150
f 129/129/129 150/150/150 149/149/149
f 130/130/130 131/131/131 151/151/151
f 130/130/130 151/151/151 150/150/150
f 131/131/131 132/132/132 152/152/152
f 131/131/131 152/152/152 151/151/151
f 132/132/132 133/133/133 153/153/153
f 132/132/132 153/153/153 152/152/152
f 133/133/133 134/134/134 154/154/154
f 133/133/133 154/154/154 153/153/153
f 134/134/134 135/135/135 155/155/155
f 134/134/134 155/155/155 154/154/154
f 135/135/135 136/136/136 156/156/156
f 135/135/135 156/156/156 155/155/155
f 136/136/136 137/137/137 157/157/157
f 136/136/136 157/157/157 156/156/156
f 137/137/137 138/138/138 158/158/158
f 137/137/137 158/158/158 157/157/157
f 138/138/138 139/139/139 159/159/159
f 138/138/138 159/159/159 158/158/158
f 139/139/139 140/140/140 160/160/160
f 139/139/139 160/160/160 159/159/159
f 140/140/140 121/121/121 141/141/141
f 140/140/140 141/141/141 160/160/160
f 141/141/141 142/142/142 162/162/162
f 141/141/141 162/162/162 161/161/161
f 142/142/142 143/143/143 163/163/163
f 142/142/142 163/163/163 162/162/162
f 143/143/143 144/144/144 164/164/164
f 143/143/143 164/164/164 163/163/163
f 144/144/144 145/145/145 165/165/165
f 144/144/144 165/165/165 164/164/164
f 145/145/145 146/146/146 166/166/166
f 145/145/145 166/166/166 165/165/165
f 146/146/146 147/147/147 167/167/167
f 146/146/146 167/167/167 166/166/166
f 147/147/147 148/148/148 168/168/168
f 147/147/147 168/168/168 167/167/167
f 148/148/148 149/149/149 169/169/169
f 148/148/148 169/169/169 168/168/168
f 149/149/149 150/150/150 170/170/170
f 149/149/149 170/170/170 169/169/169
f 150/150/150 151/151/151 171/171/171
f 150/150/150 171/171/171 170/170/170
f 151/151/151 152/152/152 172/172/172
f 151/151/151 172/172/172 171/171/171
f 152/152/152 153/153/153 173/173/173
f 152/152/152 173/173/173 172/172/172
f 153/153/153 154/154/154 174/174/174
f 153/153/153 174/174/174 173/173/173
f 154/154/154 155/155/155 175/175/175
f 154/154/154 175/175/175 174/174/174
f 155/155/155 156/156/156 176/176/176
f 155/155/155 176/176/176 175/175/175
f 156/156/156 157/157/157 177/177/177
f 156/156/156 177/177/177 176/176/176
f 157/157/157 158/158/158 178/178/178
f 157/157/157 178/178/178 177/177/177
f 158/158/158 159/159/159 179/179/179
f 158/158/158 179/179/179 178/178/178
f 159/159/159 160/160/160 180/180/180
f 159/159/159 180/180/180 179/179/179
f 160/160/160 141/141/141 161/161/161
f 160/160/160 161/161/161 180/180/180
f 161/161/161 162/162/162 182/182/182
f 161/161/161 182/182/182 181/181/181
f 162/162/162 163/163/163 183/183/183
f 162/162/162 183/183/183 182/182/182
f 163/163/163 164/164/164 184/184/184
f 163/163/163 184/184/184 183/183/183
f 164/164/164 165/165/165 185/185/185
f 164/164/164 185/185/185 184/184/184
f 165/165/165 166/166/166 186/186/186
f 165/165/165 186/186/186 185/185/185
f 166/166/166 167/167/167 187/187/187
f 166/166/166 187/187/187 186/186/186
f 167/167/167 168/168/168 188/188/188
f 167/167/167 188/188/188 187/187/187
f 168/168/168 169/169/169 189/189/189
f 168/168/168 189/189/189 188/188/188
f 169/169/169 170/170/170 190/190/190
f 169/169/169 190/190/190 189/189/189
f 170/170/170 171/171/171 191/191/191
f 170/170/170 191/191/191 190/190/190
f 171/171/171 172/172/172 192/192/192
f 171/171/171 192/192/192 191/191/191
f 172/172/172 173/173/173 193/193/193
f 172/172/172 193/193/193 192/192/192
f 173/173/173 174/174/174 194/194/194
f 173/173/173 194/194/194 193/193/193
f 174/174/174 175/175/175 195/195/195
f 174/174/174 195/195/195 194/194/194
f 175/175/175 176/176/176 196/196/196
f 175/175/175 196/196/196 195/195/195
f 176/176/176 177/177/177 197/197/197
f 176/176/176 197/197/197 196/196/196
f 177/177/177 178/178/178 198/198/198
f 177/177/177 198/198/198 197/197/197
f 178/178/178 179/179/179 199/199/199
f 178/178/178 199/199/199 198/198/198
f 179/179/179 180/180/180 200/200/200
f 179/179/179 200/200/200 199/199/199
f 180/180/180 161/161/161 181/181/181
f 180/180/180 181/181/181 200/200/200
f 181/181/181 182/182/182 202/202/202
f 181/181/181 202/202/202 201/201/201
f 182/182/182 183/183/183 203/203/203
f 182/182/182 203/203/203 202/202/202
f 183/183/183 184/184/184 204/204/204
f 183/183/183 204/204/204 203/203/203
f 184/184/184 185/185/185 205/205/205
f 184/184/184 205/205/205 204/204/204
f 185/185/185 186/186/186 206/206/206
f 185/185/185 206/206/206 205/205/205
f 186/186/186 187/187/187 207/207/207
f 186/186/186 207/207/207 206/206/206
f 187/187/187 188/188/188 208/208/208
f 187/187/187 208/208/208 207/207/207
f 188/188/188 189/189/189 209/209/209
f 188/188/188 209/209/209 208/208/208
f 189/189/189 190/190/190 210/210/210
f 189/189/189 210/210/210 209/209/209
f 190/190/190 191/191/191 211/211/211
f 190/190/190 211/211/211 210/210/210
f 191/191/191 192/192/192 212/212/212
f 191/191/191 212/212/212 211/211/211
f 192/192/192 193/193/193 213/213/213
f 192/192/192 213/213/213 212/212/212
f 193/193/193 194/194/194 214/214/214
f 193/193/193 214/214/214 213/213/213
f 194/194/194 195/195/195 215/215/215
f 194/194/194 215/215/215 214/214/214
f 195/195/195 196/196/196 216/216/216
f 195/195/195 216/216/216 215/215/215
f 196/196/196 197/197/197 217/217/217
f 196/196/196 217/217/217 216/216/216
f 197/197/197 198/198/198 218/218/218
f 197/197/197 218/218/218 217/217/217
f 198/198/198 199/199/199 219/219/219
f 198/198/198 219/219/219 218/218/218
f 199/199/199 200/200/200 220/220/220
f 199/199/199 220/220/220 219/219/219
f 200/200/200 181/181/181 201/201/201
f 200/200/200 201/201/201 220/220/220
f 201/201/201 202/202/202 222/222/222
f 201/201/201 222/222/222 221/221/221
f 202/202/202 203/203/203 223/223/223
f 202/202/202 223/223/223 222/222/222
f 203/203/203 204/204/204 224/224/224
f 203/203/203 224/224/224 223/223/223
f 204/204/204 205/205/205 225/225/225
f 204/204/204 225/225/225 224/224/224
f 205/205/205 206/206/206 226/226/226
f 205/205/205 226/226/226 225/225/225
f 206/206/206 207/207/207 227/227/227
f 206/206/206 227/227/227 226/226/226
f 207/207/207 208/208/208 228/228/228
f 207/207/207 228/228/228 227/227/227
f 208/208/208 209/209/209 229/229/229
f 208/208/208 229/229/229 228/228/228
f 209/209/209 210/210/210 230/230/230
f 209/209/209 230/230/230 229/229/229
f 210/210/210 211/211/211 231/231/231
f 210/210/210 231/231/231 230/230/230
f 211/211/211 212/212/212 232/232/232
f 211/211/211 232/232/232 231/231/231
f 212/212/212 213/213/213 233/233/233
f 212/212/212 233/233/233 232/232/232
f 213/213/213 214/214/214 234/234/234
f 213/213/213 234/234/234 233/233/233
f 214/214/214 215/215/215 235/235/235
f 214/214/214 235/235/235 234/234/234
f 215/215/215 216/216/216 236/236/236
f 215/215/215 236/236/236 235/235/235
f 216/216/216 217/217/217 237/237/237
f 216/216/216 237/237/237 236/236/236
f 217/217/217 218/218/218 238/238/238
f 217/217/217 238/238/238 237/237/237
f 218/218/218 219/219/219 239/239/239
f 218/218/218 239/239/239 238/238/238
f 219/219/219 220/220/220 240/240/240
f 219/219/219 240/240/240 239/239/239
f 220/220/220 201/201/201 221/221/221
f 220/220/220 221/221/221 240/240/240
f 221/221/221 222/222/222 242/242/242
f 221/221/221 242/242/242 241/241/241
f 222/222/222 223/223/223 243/243/243
f 222/222/222 243/243/243 242/242/242
f 223/223/223 224/224/224 244/244/244
f 223/223/223 244/244/244 243/243/243
f 224/224/224 225/225/225 245/245/245
f 224/224/224 245/245/245 244/244/244
f 225/225/225 226/226/226 246/246/246
f 225/225/225 246/246/246 245/245/245
f 226/226/226 227/227/227 247/247/247
f 226/226/226 247/247/247 246/246/246
f 227/227/227 228/228/228 248/248/248
f 227/227/227 248/248/248 247/247/247
f 228/228/228 229/229/229 249/249/249
f 228/228/228 249/249/249 248/248/248
f 229/229/229 230/230/230 250/250/250
f 229/229/229 250/250/250 249/249/249
f 230/230/230 231/231/231 251/251/251
f 230/230/230 251/251/251 250/250/250
f 231/231/231 232/232/232 252/252/252
f 231/231/231 252/252/252 251/251/251
f 232/232/232 233/233/233 253/253/253
f 232/232/232 253/253/253 252/252/252
f 233/233/233 234/234/234 254/254/254
f 233/233/233 254/254/254 253/253/253
f 234/234/234 235/235/235 255/255/255
f 234/234/234 255/255/255 254/254/254
f 235/235/235 236/236/236 256/256/256
f 235/235/235 256/256/256 255/255/255
f 236/236/236 237/237/237 257/257/257
f 236/236/236 257/257/257 256/256/256
f 237/237/237 238/238/238 258/258/258
f 237/237/237 258/258/258 257/257/257
f 238/238/238 239/239/239 259/259/259
f 238/238/238 259/259/259 258/258/258
f 239/239/239 240/240/240 260/260/260
f 239/239/239 260/260/260 259/259/259
f 240/240/240 221/221/221 241/241/241
f 240/240/240 241/241/241 260/260/260
f 241/241/241 242/242/242 262/262/262
f 241/241/241 262/262/262 261/261/261
f 242/242/242 243/243/243 263/263/263
f 242/242/242 263/263/263 262/262/262
f 243/243/243 244/244/244 264/264/264
f 243/243/243 264/264/264 263/263/263
f 244/244/244 245/245/245 265/265/265
f 244/244/244 265/265/265 264/264/264
f 245/245/245 246/246/246 266/266/266
f 245/245/245 266/266/266 265/265/265
f 246/246/246 247/247/247 267/267/267
f 246/246/246 267/267/267 266/266/266
f 247/247/247 248/248/248 268/268/268
f 247/247/247 268/268/268 267/267/267
f 248/248/248 249/249/249 269/269/269
f 248/248/248 269/269/269 268/268/268
f 249/249/249 250/250/250 270/270/270
f 249/249/249 270/270/270 269/269/269
f 250/250/250 251/251/251 271/271/271
f 250/250/250 271/271/271 270/270/270
f 251/251/251 252/252/252 272/272/272
f 251/251/251 272/272/272 271/271/271
f 252/252/252 253/253/253 273/273/273
f 252/252/252 273/273/273 272/272/272
f 253/253/253 254/254/254 274/274/274
f 253/253/253 274/274/274 273/273/273
f 254/254/254 255/255/255 275/275/275
f 254/254/254 275/275/275 274/274/274
f 255/255/255 256/256/256 276/276/276
f 255/255/255 276/276/276 275/275/275
f 256/256/256 257/257/257 277/277/277
f 256/256/256 277/277/277 276/276/276
f 257/257/257 258/258/258 278/278/278
f 257/257/257 278/278/278 277/277/277
f 258/258/258 259/259/259 279/279/279
f 258/258/258 279/279/279 278/278/278
f 259/259/259 260/260/260 280/280/280
f 259/259/259 280/280/280 279/279/279
f 260/260/260 241/241/241 261/261/261
f 260/260/260 261/261/261 280/280/280
f 281/281/281 282/282/282 296/296/296
f 281/281/281 296/296/296 295/295/295
f 282/282/282 283/283/283 297/297/297
f 282/282/282 297/297/297 296/296/296
f 283/283/283 284/284/284 298/298/298
f 283/283/283 298/298/298 297/297/297
f 284/284/284 285/285/285 299/299/299
f 284/284/284 299/299/299 298/298/298
f 285/285/285 286/286/286 300/300/300
f 285/285/285 300/300/300 299/299/299
f 286/286/286 287/287/287 301/301/301
f 286/286/286 301/301/301 300/300/300
f 287/287/287 288/288/288 302/302/302
f 287/287/287 302/302/302 301/301/301
f 288/288/288 289/289/289 303/303/303
f 288/288/288 303/303/303 302/302/302
f 289/289/289 290/290/290 304/304/304
f 289/289/289 304/304/304 303/303/303
f 290/290/290 291/291/291 305/305/305
f 290/290/290 305/305/305 304/304/304
f 291/291/291 292/292/292 306/306/306
f 291/291/291 306/306/306 305/305/305
f 292/292/292 293/293/293 307/307/307
f 292/292/292 307/307/307 306/306/306
f 293/293/293 294/294/294 308/308/308
f 293/293/293 308/308/308 307/307/307
f 294/294/294 281/281/281 295/295/295
f 294/294/294 295/295/295 308/308/308
f 295/295/295 296/296/296 310/310/310
f 295/295/295 310/310/310 309/309/309
f 296/296/296 297/297/297 311/311/311
f 296/296/296 311/311/311 310/310/310
f 297/297/297 298/298/298 312/312/312
f 297/297/297 312/312/312 311/311/311
f 298/298/298 299/299/299 313/313/313
f 298/298/298 313/313/313 312/312/312
f 299/299/299 300/300/300 314/314/314
f 299/299/299 314/314/314 313/313/313
f 300/300/300 301/301/301 315/315/315
f 300/300/300 315/315/315 314/314/314
f 301/301/301 302/302/302 316/316/316
f 301/301/301 316/316/316 315/315/315
f 302/302/302 303/303/303 317/317/317
f 302/302/302 317/317/317 316/316/316
f 303/303/303 304/304/304 318/318/318
f 303/303/303 318/318/318 317/317/317
f 304/304/304 305/305/305 319/319/319
f 304/304/304 319/319/319 318/318/318
f 305/305/305 306/306/306 320/320/320
f 305/305/305 320/320/320 319/319/319
f 306/306/306 307/307/307 321/321/321
f 306/306/306 321/321/321 320/320/320
f 307/307/307 308/308/308 322/322/322
f 307/307/307 322/322/322 321/321/321
f 308/308/308 295/295/295 309/309/309
f 308/308/308 309/309/309 322/322/322
f 309/309/309 310/310/310 324/324/324
f 309/309/309 324/324/324 323/323/323
f 310/310/310 311/311/311 325/325/325
f 310/310/310 325/325/325 324/324/324
f 311/311/311 312/312/312 326/326/326
f 311/311/311 326/326/326 325/325/325
f 312/312/312 313/313/313 327/327/327
f 312/312/312 327/327/327 326/326/326
f 313/313/313 314/314/314 328/328/328
f 313/313/313 328/328/328 327/327/327
f 314/314/314 315/315/315 329/329/329
f 314/314/314 329/329/329 328/328/328
f 315/315/315 316/316/316 330/330/330
f 315/315/315 330/330/330 329/329/329
f 316/316/316 317/317/317 331/331/331
f 316/316/316 331/331/331 330/330/330
f 317/317/317 318/318/318 332/332/332
f 317/317/317 332/332/332 331/331/331
f 318/318/318 319/319/319 333/333/333
f 318/318/318 333/333/333 332/332/332
f 319/319/319 320/320/320 334/334/334
f 319/319/319 334/334/334 333/333/333
f 320/320/320 321/321/321 335/335/335
f 320/320/320 335/335/335 334/334/334
f 321/321/321 322/322/322 336/336/336
f 321/321/321 336/336/336 335/335/335
f 322/322/322 309/309/309 323/323/323
f 322/322/322 323/323/323 336/336/336
f 323/323/323 324/324/324 338/338/338
f 323/323/323 338/338/338 337/337/337
f 324/324/324 325/325/325 339/339/339
f 324/324/324 339/339/339 338/338/338
f 325/325/325 326/326/326 340/340/340
f 325/325/325 340/340/340 339/339/339
f 326/326/326 327/327/327 341/341/341
f 326/326/326 341/341/341 340/340/340
f 327/327/327 328/328/328 342/342/342
f 327/327/327 342/342/342 341/341/341
f 328/328/328 329/329/329 343/343/343
f 328/328/328 343/343/343 342/342/342
f 329/329/329 330/330/330 344/344/344
f 329/329/329 344/344/344 343/343/343
f 330/330/330 331/331/331 345/345/345
f 330/330/330 345/345/345 344/344/344
f 331/331/331 332/332/332 346/346/346
f 331/331/331 346/346/346 345/345/345
f 332/332/332 333/333/333 347/347/347
f 332/332/332 347/347/347 346/346/346
f 333/333/333 334/334/334 348/348/348
f 333/333/333 348/348/348 347/347/347
f 334/334/334 335/335/335 349/349/349
f 334/334/334 349/349/349 348/348/348
f 335/335/335 336/336/336 350/350/350
f 335/335/335 350/350/350 349/349/349
f 336/336/336 323/323/323 337/337/337
f 336/336/336 337/337/337 350/350/350
f 337/337/337 338/338/338 352/352/352
f 337/337/337 352/352/352 351/351/351
f 338/338/338 339/339/339 353/353/353
f 338/338/338 353/353/353 352/352/352
f 339/339/339 340/340/340 354/354/354
f 339/339/339 354/354/354 353/353/353
f 340/340/340 341/341/341 355/355/355
f 340/340/340 355/355/355 354/354/354
f 341/341/341 342/342/342 356/356/356
f 341/341/341 356/356/356 355/355/355
f 342/342/342 343/343/343 357/357/357
f 342/342/342 357/357/357 356/356/356
f 343/343/343 344/344/344 358/358/358
f 343/343/343 358/358/358 357/357/357
f 344/344/344 345/345/345 359/359/359
f 344/344/344 359/359/359 358/358/358
f 345/345/345 346/346/346 360/360/360
f 345/345/345 360/360/360 359/359/359
f 346/346/346 347/347/347 361/361/361
f 346/346/346 361/361/361 360/360/360
f 347/347/347 348/348/348 362/362/362
f 347/347/347 362/362/362 361/361/361
f 348/348/348 349/349/349 363/363/363
f 348/348/348 363/363/363 362/362/362
f 349/349/349 350/350/350 364/364/364
f 349/349/349 364/364/364 363/363/363
f 350/350/350 337/337/337 351/351/351
f 350/350/350 351/351/351 364/364/364
f 351/351/351 352/352/352 366/366/366
f 351/351/351 366/366/366 365/365/365
f 352/352/352 353/353/353 367/367/367
f 352/352/352 367/367/367 366/366/366
f 353/353/353 354/354/354 368/368/368
f 353/353/353 368/368/368 367/367/367
f 354/354/354 355/355/355 369/369/369
f 354/354/354 369/369/369 368/368/368
f 355/355/355 356/356/356 370/370/370
f 355/355/355 370/370/370 369/369/369
f 356/356/356 357/357/357 371/371/371
f 356/356/356 371/371/371 370/370/370
f 357/357/357 358/358/358 372/372/372
f 357/357/357 372/372/372 371/371/371
f 358/358/358 359/359/359 373/373/373
f 358/358/358 373/373/373 372/372/372
f 359/359/359 360/360/360 374/374/374
f 359/359/359 374/374/374 373/373/373
f 360/360/360 361/361/361 375/375/375
f 360/360/360 375/375/375 374/374/374
f 361/361/361 362/362/362 376/376/376
f 361/361/361 376/376/376 375/375/375
f 362/362/362 363/363/363 377/377/377
f 362/362/362 377/377/377 376/376/376
f 363/363/363 364/364/364 378/378/378
f 363/363/363 378/378/378 377/377/377
f 364/364/364 351/351/351 365/365/365
f 364/364/364 365/365/365 378/378/378
f 365/365/365 366/366/366 380/380/380
f 365/365/365 380/380/380 379/379/379
f 366/366/366 367/367/367 381/381/381
f 366/366/366 381/381/381 380/380/380
f 367/367/367 368/368/368 382/382/382
f 367/367/367 382/382/382 381/381/381
f 368/368/368 369/369/369 383/383/383
f 368/368/368 383/383/383 382/382/382
f 369/369/369 370/370/370 384/384/384
f 369/369/369 384/384/384 383/383/383
f 370/370/370 371/371/371 385/385/385
f 370/370/370 385/385/385 384/384/384
f 371/371/371 372/372/372 386/386/386
f 371/371/371 386/386/386 385/385/385
f 372/372/372 373/373/373 387/387/387
f 372/372/372 387/387/387 386/386/386
f 373/373/373 374/374/374 388/388/388
f 373/373/373 388/388/388 387/387/387
f 374/374/374 375/375/375 389/389/389
f 374/374/374 389/389/389 388/388/388
f 375/375/375 376/376/376 390/390/390
f 375/375/375 390/390/390 389/389/389
f 376/376/376 377/377/377 391/391/391
f 376/376/376 391/391/391 390/390/390
f 377/377/377 378/378/378 392/392/392
f 377/377/377 392/392/392 391/391/391
f 378/378/378 365/365/365 379/379/379
f 378/378/378 379/379/379 392/392/392
f 393/393/393 394/394/394 404/404/404
f 393/393/393 404/404/404 403/403/403
f 394/394/394 395/395/395 405/405/405
f 394/394/394 405/405/405 404/404/404
f 395/395/395 396/396/396 406/406/406
f 395/395/395 406/406/406 405/405/405
f 396/396/396 397/397/397 407/407/407
f 396/396/396 407/407/407 406/406/406
f 397/397/397 398/398/398 408/408/408
f 397/397/397 408/408/408 407/407/407
f 398/398/398 399/399/399 409/409/409
f 398/398/398 409/409/409 408/408/408
f 399/399/399 400/400/400 410/410/410
f 399/399/399 410/410/410 409/409/409
f 400/400/400 401/401/401 411/411/411
f 400/400/400 411/411/411 410/410/410
f 401/401/401 402/402/402 412/412/412
f 401/401/401 412/412/412 411/411/411
f 402/402/402 393/393/393 403/403/403
f 402/402/402 403/403/403 412/412/412
f 403/403/403 404/404/404 414/414/414
f 403/403/403 414/414/414 413/413/413
f 404/404/404 405/405/405 415/415/415
f 404/404/404 415/415/415 414/414/414
f 405/405/405 406/406/406 416/416/416
f 405/405/405 416/416/416 415/415/415
f 406/406/406 407/407/407 417/417/417
f 406/406/406 417/417/417 416/416/416
f 407/407/407 408/408/408 418/418/418
f 407/407/407 418/418/418 417/417/417
f 408/408/408 409/409/409 419/419/419
f 408/408/408 419/419/419 418/418/418
f 409/409/409 410/410/410 420/420/420
f 409/409/409 420/420/420 419/419/419
f 410/410/410 411/411/411 421/421/421
f 410/410/410 421/421/421 420/420/420
f 411/411/411 412/412/412 422/422/422
f 411/411/411 422/422/422 421/421/421
f 412/412/412 403/403/403 413/413/413
f 412/412/412 413/413/413 422/422/422
f 413/413/413 414/414/414 424/424/424
f 413/413/413 424/424/424 423/423/423
f 414/414/414 415/415/415 425/425/425
f 414/414/414 425/425/425 424/424/424
f 415/415/415 416/416/416 426/426/426
f 415/415/415 426/426/426 425/425/425
f 416/416/416 417/417/417 427/427/427
f 416/416/416 427/427/427 426/426/426
f 417/417/417 418/418/418 428/428/428
f 417/417/417 428/428/428 427/427/427
f 418/418/418 419/419/419 429/429/429
f 418/418/418 429/429/429 428/428/428
f 419/419/419 420/420/420 430/430/430
f 419/419/419 430/430/430 429/429/429
f 420/420/420 421/421/421 431/431/431
f 420/420/420 431/431/431 430/430/430
f 421/421/421 422/422/422 432/432/432
f 421/421/421 432/432/432 431/431/431
f 422/422/422 413/413/413 423/423/423
f 422/422/422 423/423/423 432/432/432
f 423/423/423 424/424/424 434/434/434
f 423/423/423 434/434/434 433/433/433
f 424/424/424 425/425/425 435/435/435
f 424/424/424 435/435/435 434/434/434
f 425/425/425 426/426/426 436/436/436
f 425/425/425 436/436/436 435/435/435
f 426/426/426 427/427/427 437/437/437
f 426/426/426 437/437/437 436/436/436
f 427/427/427 428/428/428 438/438/438
f 427/427/427 438/438/438 437/437/437
f 428/428/428 429/429/429 439/439/439
f 428/428/428 439/439/439 438/438/438
f 429/429/429 430/430/430 440/440/440
f 429/429/429 440/440/440 439/439/439
f 430/430/430 431/431/431 441/441/441
f 430/430/430 441/441/441 440/440/440
f 431/431/431 432/432/432 442/442/442
f 431/431/431 442/442/442 441/441/441
f 432/432/432 423/423/423 433/433/433
f 432/432/432 433/433/433 442/442/442
f 433/433/433 434/434/434 444/444/444
f 433/433/433 444/444/444 443/443/443
f 434/434/434 435/435/435 445/445/445
f 434/434/434 445/445/445 444/444/444
f 435/435/435 436/436/436 446/446/446
f 435/435/435 446/446/446 445/445/445
f 436/436/436 437/437/437 447/447/447
f 436/436/436 447/447/447 446/446/446
f 437/437/437 438/438/438 448/448/448
f 437/437/437 448/448/448 447/447/447
f 438/438/438 439/439/439 449/449/449
f 438/438/438 449/449/449 448/448/448
f 439/439/439 440/440/440 450/450/450
f 439/439/439 450/450/450 449/449/449
f 440/440/440 441/441/441 451/451/451
f 440/440/440 451/451/451 450/450/450
f 441/441/441 442/442/442 452/452/452
f 441/441/441 452/452/452 451/451/451
f 442/442/442 433/433/433 443/443/443
f 442/442/442 443/443/443 452/452/452
f 443/443/443 444/444/444 454/454/454
f 443/443/443 454/454/454 453/453/453
f 444/444/444 445/445/445 455/455/455
f 444/444/444 455/455/455 454/454/454
f 445/445/445 446/446/446 456/456/456
f 445/445/445 456/456/456 455/455/455
f 446/446/446 447/447/447 457/457/457
f 446/446/446 457/457/457 456/456/456
f 447/447/447 448/448/448 458/458/458
f 447/447/447 458/458/458 457/457/457
f 448/448/448 449/449/449 459/459/459
f 448/448/448 459/459/459 458/458/458
f 449/449/449 450/450/450 460/460/460
f 449/449/449 460/460/460 459/459/459
f 450/450/450 451/451/451 461/461/461
f 450/450/450 461/461/461 460/460/460
f 451/451/451 452/452/452 462/462/462
f 451/451/451 462/462/462 461/461/461
f 452/452/452 443/443/443 453/453/453
f 452/452/452 453/453/453 462/462/462
f 453/453/453 454/454/454 464/464/464
f 453/453/453 464/464/464 463/463/463
f 454/454/454 455/455/455 465/465/465
f 454/454/454 465/465/465 464/464/464
f 455/455/455 456/456/456 466/466/466
f 455/455/455 466/466/466 465/465/465
f 456/456/456 457/457/457 467/467/467
f 456/456/456 467/467/467 466/466/466
f 457/457/457 458/458/458 468/468/468
f 457/457/457 468/468/468 467/467/467
f 458/458/458 459/459/459 469/469/469
f 458/458/458 469/469/469 468/468/468
f 459/459/459 460/460/460 470/470/470
f 459/459/459 470/470/470 469/469/469
f 460/460/460 461/461/461 471/471/471
f 460/460/460 471/471/471 470/470/470
f 461/461/461 462/462/462 472/472/472
f 461/461/461 472/472/472 471/471/471
f 462/462/462 453/453/453 463/463/463
f 462/462/462 463/463/463 472/472/472
f 473/473/473 474/474/474 475/475/475
f 473/473/473 475/475/475 476/476/476
f 477/477/477 478/478/478 479/479/479
f 477/477/477 479/479/479 480/480/480
f 481/481/481 482/482/482 483/483/483
f 481/481/481 483/483/483 484/484/484
f 485/485/485 486/486/486 487/487/487
f 485/485/485 487/487/487 488/488/488
f 489/489/489 490/490/490 491/491/491
f 489/489/489 491/491/491 492/492/492
f 493/493/493 494/494/494 495/495/495
f 493/493/493 495/495/495 496/496/496
